<svg width="2950" height="1835" viewBox="0 0 2950 1835" fill="none" xmlns="http://www.w3.org/2000/svg">
<path d="M2123.2 4.60302C2126.94 5.08629 2130.65 5.28832 2134.42 5.41406C2217.4 8.58049 2300.3 22.0469 2382.16 35.6174C2390.92 37.069 2399.68 38.4845 2408.45 39.8281C2409.4 39.9732 2410.35 40.1184 2411.33 40.2679C2413.25 40.5617 2415.17 40.8556 2417.08 41.1493C2431.96 43.4269 2446.79 45.858 2461.59 48.5898C2478.11 51.6394 2494.68 54.1824 2511.31 56.6033C2513.29 56.8917 2515.27 57.1802 2517.25 57.4687C2518.21 57.6084 2519.16 57.7481 2520.15 57.892C2528 59.0431 2535.83 60.3328 2543.65 61.6523C2558.74 64.165 2573.92 66.0062 2589.1 67.853C2598.45 68.9906 2607.79 70.1376 2617.11 71.4766C2649.37 76.1038 2681.64 78.1547 2714.19 79.4441C2715.99 79.516 2717.8 79.588 2719.6 79.6601C2720.47 79.6945 2721.34 79.7288 2722.23 79.7642C2726.52 79.9432 2730.77 80.2008 2735.05 80.6328C2744.85 81.5237 2754.75 81.2872 2764.59 81.2773C2765.69 81.2767 2766.8 81.2761 2767.93 81.2755C2795.35 81.235 2822.38 80.0712 2849.59 76.6927C2859.46 75.4792 2869.19 74.6927 2879.15 74.6523C2880.2 74.6425 2881.26 74.6327 2882.34 74.6226C2892.64 74.7373 2902.2 77.0013 2911.34 81.7773C2912.02 82.1269 2912.69 82.4765 2913.39 82.8367C2930.87 92.1182 2941.36 107.098 2947.65 125.652C2952.35 143.729 2949.23 160.955 2940.12 177.031C2932.59 189.115 2922.16 198.948 2911.09 207.777C2907.35 210.779 2903.71 213.888 2900.06 217.002C2896.58 219.959 2893.04 222.818 2889.46 225.652C2885.06 229.237 2881.3 233.08 2877.59 237.359C2874.88 240.475 2872.08 243.502 2869.27 246.527C2863.89 252.351 2858.52 258.197 2853.21 264.09C2852.36 265.03 2852.36 265.03 2851.49 265.988C2841.73 276.947 2832.72 288.61 2823.7 300.183C2822.06 302.283 2820.41 304.378 2818.77 306.473C2813.07 313.729 2807.47 321.014 2802.17 328.562C2798.4 333.901 2794.44 339.088 2790.46 344.277C2782.92 354.126 2775.52 364.07 2768.21 374.09C2767.66 374.838 2767.12 375.587 2766.55 376.358C2760.49 384.657 2754.54 393.02 2748.77 401.527C2739.11 415.768 2728.77 429.5 2718.21 443.09C2715.38 446.758 2712.55 450.431 2709.73 454.108C2708.63 455.546 2707.53 456.983 2706.42 458.419C2699.29 467.703 2692.21 477.007 2685.4 486.527C2677.88 497.02 2670.12 507.163 2661.38 516.676C2658.33 520.072 2655.47 523.618 2652.6 527.168C2649.99 530.364 2647.33 533.511 2644.65 536.652C2641.46 540.398 2638.32 544.168 2635.27 548.027C2621.77 564.994 2606.86 580.654 2591.41 595.851C2588.03 599.194 2584.75 602.56 2581.66 606.172C2578.24 610.146 2574.52 613.681 2570.65 617.215C2565.22 622.232 2559.91 627.332 2554.71 632.59C2550.04 637.305 2545.3 641.818 2540.21 646.09C2539.17 646.987 2538.12 647.886 2537.08 648.785C2534.06 651.381 2531.04 653.968 2528.01 656.552C2526.85 657.544 2525.69 658.536 2524.53 659.53C2485.64 692.902 2443.47 721.441 2398.24 745.477C2396.22 746.554 2394.2 747.638 2392.18 748.727C2336.78 778.611 2274.97 798.871 2213.03 809.438C2209.56 810.03 2206.1 810.636 2202.63 811.246C2179.16 815.328 2156 817.701 2132.21 818.332C2131.41 818.354 2130.6 818.375 2129.78 818.397C2125.72 818.505 2121.67 818.607 2117.61 818.698C2116.1 818.735 2114.58 818.772 2113.07 818.809C2112.38 818.822 2111.69 818.836 2110.98 818.85C2107.84 818.93 2104.81 819.147 2101.7 819.593C2097.96 820.126 2094.28 820.286 2090.5 820.328C2089.76 820.338 2089.01 820.348 2088.25 820.358C2085.78 820.383 2083.31 820.395 2080.84 820.402C2079.98 820.405 2079.12 820.408 2078.23 820.41C2046.88 820.42 2015.33 817.541 1984.36 812.723C1979.27 811.937 1974.17 811.22 1969.07 810.492C1937.18 805.924 1906.08 799.949 1874.84 792.092C1872.86 791.596 1870.89 791.103 1868.92 790.611C1813.93 776.826 1813.93 776.826 1798.24 751.505C1788.81 735.48 1784.3 718.507 1788.21 700.027C1793.79 680.735 1806.19 663.417 1823.8 653.656C1854.79 638.341 1891.11 650.745 1922.56 658.546C1989.16 675.058 2054.5 683.552 2123.12 678.345C2126.13 678.138 2129.14 678.019 2132.16 677.932C2145.3 677.531 2158.01 676.04 2170.97 673.871C2174.14 673.341 2177.32 672.831 2180.49 672.324C2200.4 669.101 2220.03 665.151 2239.27 659.09C2240.8 658.617 2242.32 658.143 2243.84 657.67C2270.15 649.444 2296.3 641.001 2321.21 629.09C2321.97 628.731 2322.73 628.372 2323.51 628.002C2328.13 625.8 2332.69 623.493 2337.21 621.09C2337.89 620.731 2338.56 620.373 2339.26 620.003C2358.24 609.83 2376.69 598.621 2394.21 586.09C2394.95 585.565 2395.68 585.04 2396.44 584.5C2401.04 581.211 2405.63 577.898 2410.2 574.562C2411.45 573.65 2412.69 572.74 2413.95 571.833C2426.15 562.981 2437.31 553.019 2448.33 542.758C2450.59 540.661 2452.88 538.607 2455.21 536.59C2464.86 528.196 2474.03 519.368 2483.09 510.34C2483.98 509.453 2484.87 508.566 2485.79 507.652C2490.26 503.171 2494.57 498.625 2498.7 493.823C2500.76 491.463 2502.97 489.276 2505.21 487.09C2508.7 483.639 2512 480.125 2515.18 476.395C2516.81 474.55 2518.46 472.756 2520.15 470.973C2526.15 464.626 2531.86 458.2 2537.19 451.271C2540.26 447.281 2543.43 443.411 2546.71 439.59C2550.9 434.695 2554.92 429.691 2558.87 424.604C2562.59 419.84 2566.42 415.177 2570.27 410.527C2575.23 404.55 2580.04 398.494 2584.73 392.312C2586.94 389.418 2589.22 386.588 2591.52 383.761C2598.28 375.42 2604.59 366.792 2610.82 358.048C2614.99 352.189 2619.23 346.379 2623.58 340.645C2631.06 330.757 2638.28 320.753 2645.23 310.48C2648.24 306.032 2651.34 301.654 2654.48 297.295C2656.71 294.193 2658.92 291.078 2661.11 287.941C2668.83 276.877 2676.65 265.932 2685.84 256.027C2697.49 243.448 2697.49 243.448 2702.65 227.965C2702.49 224.203 2702.49 224.203 2700.84 221.777C2691.29 215.638 2679.06 216.043 2668.11 215.546C2620.79 213.372 2573.62 207.057 2526.78 200.193C2521.14 199.368 2515.51 198.559 2509.87 197.755C2470.73 192.172 2431.72 185.958 2392.75 179.228C2376.16 176.366 2359.52 173.745 2342.88 171.146C2329.55 169.064 2316.23 166.949 2302.93 164.691C2301.78 164.495 2300.62 164.299 2299.43 164.096C2297.12 163.704 2294.81 163.312 2292.5 162.92C2271.69 159.386 2250.88 156.286 2229.92 153.815C2226.08 153.354 2222.3 152.766 2218.51 152.055C2209.31 150.459 2199.95 150.158 2190.65 149.59C2187.79 149.413 2184.92 149.234 2182.06 149.05C2180.3 148.937 2178.53 148.827 2176.77 148.723C2171.69 148.4 2166.65 147.932 2161.6 147.375C2151.33 146.244 2141.08 145.524 2130.76 145.02C2129.05 144.933 2127.34 144.846 2125.63 144.759C2122.06 144.579 2118.5 144.403 2114.93 144.23C2111.35 144.056 2107.77 143.875 2104.19 143.689C2086.31 142.758 2068.44 141.914 2050.53 141.918C2049.28 141.918 2048.04 141.917 2046.75 141.917C2036.02 141.981 2025.37 142.674 2014.68 143.527C2009.44 143.94 2004.21 144.267 1998.97 144.527C1918.56 148.567 1839.53 170.57 1775.19 220.557C1773.82 221.618 1772.44 222.665 1771.05 223.701C1763.44 229.541 1756.77 236.265 1750.02 243.071C1748.02 245.091 1746.01 247.103 1744 249.113C1734.8 258.318 1734.8 258.318 1726.21 268.09C1725.59 268.831 1724.97 269.573 1724.33 270.336C1718.93 276.918 1714.15 283.864 1709.46 290.965C1709.07 291.555 1708.68 292.144 1708.28 292.752C1696.44 310.63 1685.82 328.919 1676.21 348.09C1675.67 349.172 1675.13 350.255 1674.57 351.371C1672.87 354.77 1671.19 358.178 1669.52 361.59C1668.78 363.098 1668.78 363.098 1668.02 364.637C1658.25 384.857 1651.4 406.18 1644.66 427.552C1625.91 486.84 1625.91 486.84 1598.04 502.18C1582.14 510.404 1566.08 512.453 1548.82 507.352C1530.18 500.834 1515.19 487.702 1506.21 470.09C1489.81 432.629 1509.52 388.638 1523.42 353.094C1550.86 283.577 1587.52 216.977 1638.06 161.461C1639.46 159.923 1640.84 158.374 1642.21 156.812C1647.04 151.319 1652.11 146.085 1657.27 140.902C1657.94 140.237 1658.6 139.572 1659.28 138.886C1663.76 134.418 1668.41 130.208 1673.21 126.09C1674.23 125.201 1675.25 124.311 1676.27 123.422C1684 116.796 1692 110.643 1700.19 104.602C1702.16 103.13 1704.11 101.632 1706.05 100.121C1723.61 86.5206 1742.81 75.9151 1762.42 65.5762C1764.67 64.3775 1766.9 63.1532 1769.11 61.8867C1782.5 54.3264 1796.97 48.8145 1811.21 43.0898C1812.36 42.6275 1813.5 42.1653 1814.68 41.689C1834.1 33.9422 1854 28.3247 1874.21 23.0898C1875.33 22.7963 1876.45 22.5027 1877.61 22.2002C1954.93 2.23767 2043.88 -5.89785 2123.2 4.60302Z" fill="#fff"/>
<path d="M2252.38 317.01C2260.3 316.967 2268.22 316.934 2276.14 316.91C2280.78 316.895 2285.42 316.876 2290.06 316.843C2357.5 316.372 2357.5 316.372 2380.87 338.567C2394.08 352.807 2401.91 370.93 2401.51 390.395C2399.89 410.287 2389.45 427.615 2374.52 440.391C2358.15 453.031 2339.32 456.237 2319.15 456.242C2317.95 456.246 2316.74 456.25 2315.51 456.255C2312.19 456.265 2308.87 456.272 2305.55 456.276C2301.97 456.282 2298.38 456.294 2294.79 456.305C2288.58 456.323 2282.37 456.338 2276.16 456.351C2267.16 456.369 2258.15 456.394 2249.15 456.42C2234.51 456.463 2219.88 456.502 2205.24 456.538C2203.93 456.541 2203.93 456.541 2202.59 456.545C2197.27 456.558 2191.95 456.571 2186.62 456.584C2178.67 456.603 2170.71 456.623 2162.75 456.643C2161.44 456.646 2161.44 456.646 2160.11 456.649C2145.54 456.685 2130.97 456.725 2116.4 456.768C2107.43 456.794 2098.47 456.817 2089.5 456.835C2083.34 456.848 2077.18 456.864 2071.02 456.883C2067.48 456.893 2063.93 456.902 2060.39 456.907C2003.71 456.997 1951.42 465.8 1900.21 491.09C1899.43 491.471 1898.64 491.852 1897.83 492.245C1888.26 496.918 1879.27 502.445 1870.27 508.153C1869.23 508.814 1868.19 509.475 1867.11 510.156C1860.48 514.435 1854.28 519.04 1848.21 524.09C1847.62 524.575 1847.03 525.059 1846.42 525.557C1830.35 538.805 1814.26 553.025 1801.33 569.415C1799.14 572.187 1796.84 574.85 1794.52 577.528C1771.58 605.049 1756.85 636.157 1744.52 669.577C1742.5 675.008 1740.37 680.396 1738.21 685.778C1737.8 686.802 1737.4 687.826 1736.97 688.881C1734.93 693.966 1732.82 699.012 1730.6 704.02C1724.18 718.545 1719.07 733.225 1714.27 748.343C1710.36 760.641 1706.25 772.855 1701.96 785.028C1701.66 785.875 1701.37 786.722 1701.06 787.595C1699.12 793.097 1697.17 798.594 1695.21 804.09C1694.59 805.853 1694.59 805.853 1693.95 807.651C1685.23 832.166 1676.25 856.597 1666.96 880.903C1654.69 913.096 1643.03 945.516 1631.48 977.976C1626.03 993.303 1620.47 1008.57 1614.63 1023.76C1611.98 1030.65 1609.44 1037.59 1606.9 1044.53C1606.23 1046.37 1606.23 1046.37 1605.54 1048.25C1604.84 1050.16 1604.14 1052.08 1603.44 1053.99C1600.44 1062.22 1597.42 1070.44 1594.4 1078.65C1593.96 1079.85 1593.96 1079.85 1593.51 1081.07C1590.25 1089.93 1586.96 1098.79 1583.59 1107.61C1583.15 1108.77 1583.15 1108.77 1582.7 1109.96C1582.1 1111.52 1581.51 1113.08 1580.91 1114.64C1580.62 1115.41 1580.33 1116.17 1580.02 1116.97C1579.73 1117.73 1579.44 1118.5 1579.14 1119.29C1574.85 1130.54 1570.83 1141.84 1566.99 1153.24C1563.24 1164.35 1559.13 1175.3 1554.88 1186.23C1550.87 1196.57 1547.13 1206.96 1543.59 1217.47C1539.37 1229.97 1534.72 1242.25 1529.82 1254.5C1527.76 1259.66 1525.81 1264.84 1523.9 1270.05C1509.2 1310.22 1490.41 1349.39 1465.21 1384.09C1464.67 1384.85 1464.12 1385.6 1463.56 1386.38C1454.12 1399.52 1444.14 1411.87 1433.25 1423.84C1431.43 1425.85 1429.66 1427.9 1427.9 1429.97C1421.21 1437.64 1413.88 1444.8 1406.13 1451.39C1403.95 1453.33 1401.93 1455.38 1399.9 1457.47C1395.87 1461.54 1391.61 1465.15 1387.14 1468.72C1384.61 1470.77 1382.14 1472.86 1379.67 1474.98C1317.12 1528.73 1236.3 1563.28 1093.66 1581.66C1092.88 1581.68 1092.09 1581.7 1091.28 1581.73C1071.96 1582.22 1052.64 1582.19 1033.32 1582.14C1021.48 1582.11 1009.63 1582.11 997.791 1582.1C995.667 1582.1 993.543 1582.1 991.419 1582.1C947.127 1582.06 902.835 1582.18 858.544 1582.27C856.879 1582.28 856.879 1582.28 855.18 1582.28C833.491 1582.33 811.801 1582.38 790.111 1582.43C785.456 1582.44 780.802 1582.45 776.148 1582.46C774.993 1582.47 773.838 1582.47 772.648 1582.47C753.761 1582.52 734.873 1582.56 715.986 1582.6C696.288 1582.64 676.59 1582.68 656.893 1582.73C645.953 1582.75 635.013 1582.78 624.073 1582.8C611.934 1582.82 599.795 1582.85 587.656 1582.89C586.709 1582.89 585.761 1582.89 584.785 1582.89C560.788 1582.96 536.807 1583.17 512.817 1583.77C497.835 1584.14 482.892 1584.1 467.907 1583.82C465.329 1583.78 462.75 1583.74 460.171 1583.7C454.884 1583.61 449.597 1583.52 444.31 1583.42C438.263 1583.31 432.217 1583.21 426.17 1583.12C420.217 1583.03 414.265 1582.93 408.312 1582.82C405.832 1582.78 403.352 1582.74 400.871 1582.7C365.701 1582.16 365.701 1582.16 350.337 1577.84C349.548 1577.62 348.759 1577.4 347.946 1577.18C335.174 1573.49 326.417 1567.42 317.212 1558.09C316.593 1557.47 315.974 1556.85 315.337 1556.21C303.819 1543.76 297.579 1524.82 297.962 1508.04C299.526 1489.61 307.683 1472.23 321.329 1459.6C342.604 1442.56 365.515 1441.63 391.566 1441.7C395.301 1441.71 399.036 1441.7 402.771 1441.69C409.304 1441.68 415.838 1441.68 422.371 1441.68C432.087 1441.69 441.803 1441.68 451.519 1441.67C467.873 1441.65 484.226 1441.65 500.579 1441.65C516.779 1441.65 532.979 1441.65 549.179 1441.63C550.693 1441.63 550.693 1441.63 552.237 1441.63C557.362 1441.62 562.487 1441.62 567.612 1441.61C578.033 1441.61 588.454 1441.6 598.875 1441.59C600.439 1441.59 600.439 1441.59 602.036 1441.59C626.848 1441.57 651.66 1441.56 676.472 1441.55C678.1 1441.55 678.1 1441.55 679.761 1441.55C688.553 1441.54 697.344 1441.54 706.136 1441.54C731.437 1441.53 756.738 1441.52 782.039 1441.5C783.122 1441.5 784.206 1441.5 785.322 1441.5C810.079 1441.49 834.835 1441.48 859.592 1441.46C861.154 1441.46 861.154 1441.46 862.748 1441.45C873.15 1441.45 883.552 1441.44 893.953 1441.43C916.266 1441.41 938.579 1441.4 960.892 1441.4C977.163 1441.39 993.433 1441.39 1009.7 1441.37C1019.36 1441.36 1029.01 1441.36 1038.66 1441.37C1045.13 1441.37 1051.59 1441.37 1058.05 1441.36C1061.73 1441.35 1065.4 1441.35 1069.07 1441.36C1092.01 1441.39 1114.38 1440.03 1137.02 1436.34C1137.83 1436.21 1138.64 1436.08 1139.47 1435.95C1186.82 1428.3 1229.16 1411.63 1269.21 1385.09C1269.92 1384.62 1270.63 1384.15 1271.36 1383.67C1287.26 1373.1 1301.52 1361.39 1315.21 1348.09C1315.88 1347.44 1316.55 1346.8 1317.24 1346.13C1325.1 1338.5 1332.44 1330.73 1339.21 1322.09C1340.65 1320.38 1342.09 1318.67 1343.52 1316.97C1353.6 1304.59 1362.19 1291.41 1369.9 1277.46C1370.75 1275.92 1371.61 1274.38 1372.48 1272.85C1380.24 1259.19 1385.89 1244.85 1391.42 1230.17C1392.54 1227.21 1393.67 1224.26 1394.8 1221.3C1404.97 1194.69 1414.63 1167.97 1423.61 1140.94C1429.06 1124.52 1434.66 1108.26 1441.17 1092.22C1446.53 1078.96 1451.42 1065.52 1456.37 1052.09C1458.31 1046.82 1460.27 1041.55 1462.22 1036.27C1469.54 1016.56 1476.77 996.814 1483.9 977.028C1488.92 963.091 1494.01 949.186 1499.27 935.34C1499.55 934.605 1499.83 933.869 1500.12 933.112C1500.69 931.623 1501.25 930.135 1501.82 928.647C1502.1 927.905 1502.39 927.163 1502.68 926.399C1502.96 925.654 1503.24 924.91 1503.54 924.143C1507.17 914.577 1510.76 904.993 1514.34 895.403C1514.68 894.495 1515.01 893.588 1515.36 892.652C1520.13 879.853 1524.75 867.011 1529.26 854.118C1533.05 843.26 1537.04 832.491 1541.15 821.75C1544.78 812.265 1548.28 802.736 1551.75 793.19C1554.38 785.971 1557.09 778.783 1559.86 771.618C1567.22 752.612 1574.19 733.546 1580.65 714.215C1587.62 693.369 1595.31 672.884 1603.35 652.434C1606.4 644.659 1609.26 636.823 1612.09 628.965C1626.99 587.803 1645.9 548.494 1673.21 514.09C1674.08 512.975 1674.95 511.86 1675.82 510.743C1682.35 502.37 1689.02 494.123 1695.74 485.903C1697.05 484.293 1698.35 482.675 1699.65 481.055C1704.77 474.695 1710.18 468.645 1715.74 462.671C1717.27 461.029 1718.78 459.377 1720.3 457.723C1728.24 449.057 1736.29 440.754 1745.21 433.09C1746.32 432.123 1747.42 431.154 1748.52 430.184C1761.56 418.755 1774.94 407.943 1789.21 398.09C1790.28 397.349 1791.34 396.608 1792.44 395.844C1796.31 393.183 1800.25 390.625 1804.21 388.09C1805.17 387.478 1806.12 386.865 1807.11 386.234C1825.18 374.747 1843.74 364.978 1863.21 356.09C1864.11 355.675 1865.01 355.259 1865.94 354.831C1897.57 340.33 1932.4 331.522 1966.4 324.59C1968.09 324.244 1968.09 324.244 1969.81 323.89C1986.78 320.603 2004 319.641 2021.25 319.005C2022.34 318.963 2023.43 318.922 2024.56 318.879C2060.87 317.545 2097.23 317.636 2133.56 317.501C2140.57 317.475 2147.58 317.443 2154.59 317.408C2155.58 317.403 2156.56 317.398 2157.57 317.393C2159.55 317.383 2161.53 317.373 2163.51 317.363C2182.2 317.27 2200.88 317.2 2219.57 317.147C2230.51 317.116 2241.45 317.071 2252.38 317.01Z" fill="#fff"/>
<path d="M86.7732 703.835C88.7499 703.833 90.7265 703.83 92.7032 703.826C98.131 703.817 103.559 703.821 108.987 703.827C114.893 703.831 120.8 703.823 126.707 703.818C137.058 703.809 147.409 703.807 157.76 703.811C168.863 703.815 179.967 703.814 191.07 703.809C191.772 703.808 192.474 703.808 193.197 703.808C196.057 703.806 198.916 703.805 201.776 703.803C230.786 703.788 259.796 703.785 288.806 703.787C292.813 703.788 296.82 703.788 300.827 703.788C301.623 703.788 302.419 703.788 303.239 703.788C320.884 703.79 338.53 703.787 356.175 703.784C360.205 703.783 364.235 703.782 368.265 703.781C369.883 703.781 371.5 703.781 373.118 703.781C373.919 703.78 374.721 703.78 375.547 703.78C377.169 703.78 378.791 703.78 380.412 703.779C426.424 703.771 472.436 703.766 518.448 703.77C519.3 703.77 520.151 703.77 521.029 703.77C530.528 703.771 540.027 703.772 549.527 703.773C550.384 703.773 551.242 703.773 552.125 703.773C559.251 703.774 559.251 703.774 562.53 703.774C617.388 703.78 672.246 703.772 727.104 703.754C740.927 703.749 754.75 703.744 768.573 703.74C769.85 703.739 769.85 703.739 771.153 703.739C797.388 703.731 823.624 703.726 849.859 703.725C850.683 703.725 851.507 703.725 852.355 703.725C870.439 703.724 888.522 703.725 906.606 703.726C913.076 703.727 919.547 703.727 926.018 703.727C927.627 703.727 929.237 703.727 930.847 703.727C956.488 703.729 982.129 703.722 1007.77 703.71C1034.31 703.699 1060.86 703.698 1087.4 703.71C1090.25 703.712 1093.11 703.713 1095.96 703.714C1096.66 703.714 1097.36 703.715 1098.08 703.715C1109.15 703.719 1120.22 703.713 1131.29 703.703C1142.19 703.694 1153.08 703.695 1163.97 703.708C1169.8 703.714 1175.62 703.716 1181.44 703.704C1186.75 703.693 1192.05 703.697 1197.35 703.711C1199.25 703.714 1201.16 703.711 1203.06 703.703C1227.76 703.607 1249.16 708.56 1267.45 726.227C1279.96 739.185 1286.67 756.034 1286.42 774.016C1285.04 794.22 1275.89 813.295 1260.84 826.716C1245.22 839.876 1225.71 843.401 1205.84 843.368C1204.53 843.374 1203.23 843.38 1201.88 843.386C1198.27 843.402 1194.66 843.405 1191.04 843.407C1187.09 843.41 1183.13 843.425 1179.17 843.439C1171.27 843.465 1163.36 843.479 1155.46 843.49C1145.83 843.505 1136.2 843.53 1126.57 843.555C1106.18 843.608 1085.79 843.646 1065.39 843.68C1050.56 843.704 1035.72 843.732 1020.89 843.763C931.669 843.949 842.452 844.059 484.391 844.211C480.803 844.212 477.215 844.212 473.628 844.212C472.74 844.212 471.853 844.213 470.938 844.213C457.429 844.214 443.919 844.216 430.41 844.219C392.223 844.226 354.036 844.231 315.849 844.226C312.594 844.225 309.338 844.225 306.082 844.224C305.282 844.224 304.482 844.224 303.657 844.224C291.691 844.222 279.724 844.223 267.758 844.226C254.351 844.229 240.944 844.228 227.537 844.223C220.75 844.22 213.963 844.219 207.175 844.223C200.991 844.225 194.807 844.224 188.623 844.219C186.39 844.217 184.156 844.218 181.923 844.22C178.897 844.223 175.871 844.22 172.845 844.216C171.543 844.219 171.543 844.219 170.215 844.223C165.121 844.207 160.258 843.779 155.211 843.09C152.452 843.022 149.722 842.995 146.965 843.027C145.33 843.036 143.695 843.045 142.061 843.053C141.201 843.06 140.341 843.066 139.456 843.072C123.065 843.179 106.673 843.097 90.2839 842.827C88.1778 842.794 86.0716 842.766 83.9654 842.743C58.7439 842.459 37.454 838.651 18.3989 820.84C5.43572 807.068 -0.248512 789.399 0.00831323 770.672C0.940742 754.229 7.16298 739.34 18.2114 727.09C18.7064 726.503 19.2014 725.917 19.7114 725.312C37.187 706.046 62.3616 703.774 86.7732 703.835Z" fill="#fff"/>
<path d="M243.666 1071.84C247.915 1071.84 252.164 1071.84 256.413 1071.83C263.841 1071.83 271.269 1071.83 278.697 1071.84C289.745 1071.85 300.792 1071.85 311.839 1071.84C330.436 1071.84 349.033 1071.84 367.63 1071.85C386.056 1071.86 404.482 1071.86 422.909 1071.86C424.057 1071.86 425.205 1071.86 426.388 1071.86C431.05 1071.86 435.712 1071.86 440.374 1071.86C484.086 1071.86 527.798 1071.87 571.51 1071.88C610.283 1071.9 649.056 1071.9 687.829 1071.9C690.316 1071.9 692.804 1071.9 695.292 1071.9C696.522 1071.9 697.752 1071.9 699.019 1071.9C705.211 1071.9 711.403 1071.9 717.596 1071.9C718.818 1071.9 720.039 1071.9 721.298 1071.9C753.755 1071.9 786.211 1071.91 818.668 1071.91C820.402 1071.91 820.402 1071.91 822.171 1071.91C826.819 1071.92 831.468 1071.92 836.116 1071.92C852.232 1071.92 868.348 1071.92 884.464 1071.92C905.252 1071.92 926.04 1071.93 946.828 1071.94C957.801 1071.94 968.774 1071.94 979.747 1071.94C987.105 1071.94 994.463 1071.94 1001.82 1071.95C1005.99 1071.95 1010.17 1071.96 1014.34 1071.95C1030.11 1071.94 1045.87 1072.02 1061.63 1072.42C1063.09 1072.45 1064.55 1072.49 1066.02 1072.52C1073.82 1072.69 1081.55 1073.13 1089.3 1074.02C1090.34 1074.14 1090.34 1074.14 1091.39 1074.26C1109.71 1076.52 1124.5 1085.24 1136.02 1099.46C1146.2 1112.7 1149.4 1125.59 1149.52 1142.09C1149.55 1143.34 1149.58 1144.59 1149.61 1145.88C1149.73 1163.67 1143.16 1177.81 1130.92 1190.37C1129.58 1191.72 1129.58 1191.72 1128.21 1193.09C1127.58 1193.76 1126.94 1194.43 1126.29 1195.12C1117.06 1204.12 1103.73 1209.16 1091.21 1211.09C1090.13 1211.26 1089.05 1211.43 1087.94 1211.61C1081.47 1212.4 1074.96 1212.23 1068.45 1212.22C1066.93 1212.22 1065.42 1212.22 1063.91 1212.23C1059.74 1212.23 1055.57 1212.23 1051.41 1212.23C1046.87 1212.23 1042.34 1212.23 1037.81 1212.24C1028.82 1212.25 1019.83 1212.25 1010.84 1212.25C1000.08 1212.25 989.312 1212.26 978.546 1212.26C952.525 1212.28 926.504 1212.29 900.483 1212.29C888.174 1212.29 875.865 1212.3 863.556 1212.3C821.425 1212.31 779.294 1212.32 737.163 1212.33C734.518 1212.33 731.873 1212.33 729.228 1212.33C726.577 1212.33 723.926 1212.33 721.275 1212.33C715.956 1212.33 710.638 1212.33 705.319 1212.33C703.341 1212.33 703.341 1212.33 701.323 1212.33C658.557 1212.33 615.791 1212.35 573.026 1212.37C527.814 1212.4 482.603 1212.41 437.392 1212.41C432.429 1212.41 427.467 1212.41 422.504 1212.41C420.671 1212.41 420.671 1212.41 418.801 1212.41C399.133 1212.41 379.465 1212.43 359.797 1212.44C340.03 1212.45 320.264 1212.46 300.498 1212.45C288.754 1212.44 277.011 1212.45 265.267 1212.46C257.42 1212.47 249.574 1212.47 241.727 1212.46C237.258 1212.46 232.789 1212.46 228.319 1212.47C224.246 1212.48 220.174 1212.48 216.101 1212.46C214.643 1212.46 213.186 1212.46 211.728 1212.47C189.95 1212.59 171.704 1207.21 155.649 1192.03C140.801 1176.63 134.536 1158.68 134.864 1137.39C135.677 1118.53 146.244 1102.3 159.43 1089.51C182.87 1069.1 214.577 1071.78 243.666 1071.84Z" fill="#fff"/>
<circle cx="609.211" cy="1744.09" r="90" fill="#fff"/>
<circle cx="958.211" cy="1744.09" r="90" fill="#fff"/>
</svg>
